<svg width="99" height="24" viewBox="0 0 99 24" fill="none" xmlns="http://www.w3.org/2000/svg">
<path d="M53.1531 19.3231H49.5407C49.5078 19.2309 49.6658 19.1739 49.6658 19.1366V9.9795C49.6658 9.6834 49.4793 8.72272 49.3828 8.39592C48.7402 6.2311 45.2659 6.34296 44.132 7.93312C44.0289 8.08008 43.5639 9.01005 43.5639 9.10875V19.3253H40.0765V9.60663C40.0765 9.35221 39.6159 8.27309 39.4339 8.0077C38.2341 6.264 34.9047 6.23549 34.1896 8.45075C33.7159 9.91589 33.9067 16.1077 33.9703 17.8974C33.9857 18.358 34.1918 18.8318 34.0997 19.3253H30.4873V8.11298C30.4873 7.79933 31.0137 6.54694 31.2089 6.22014C33.1325 3.02007 39.7322 2.96305 41.7566 6.18066C44.5005 2.08352 52.7276 3.38416 53.0325 8.73149L53.1531 19.3253V19.3231Z" fill="#990009"/>
<path d="M53.1531 19.2821H49.5407C49.5078 19.1899 49.6658 19.1329 49.6658 19.0956V9.93848C49.6658 9.64238 49.4793 8.6817 49.3828 8.3549C48.7402 6.19009 45.2659 6.30195 44.132 7.89211C44.0289 8.03906 43.5639 8.96903 43.5639 9.06773V19.2842H40.0765V9.56562C40.0765 9.31119 39.6159 8.23207 39.4339 7.96668C38.2341 6.22299 34.9047 6.19447 34.1896 8.40973C33.7159 9.87487 33.9067 16.0666 33.9703 17.8564C33.9857 18.317 34.1918 18.7907 34.0997 19.2842H30.4873V8.07196C30.4873 7.75832 31.0137 6.50593 31.2089 6.17912C33.1325 2.97906 39.7322 2.92203 41.7566 6.13964C44.5005 2.04251 52.7276 3.34315 53.0325 8.69048L53.1531 19.2842V19.2821Z" fill="#990009"/>
<path d="M26.6904 18.2444L28.5372 21.6309C24.3545 24.7761 18.075 24.8046 13.9077 21.6265L15.8028 18.2444C18.5488 20.3039 22.2117 20.7097 25.2823 19.0844C25.4994 18.9704 26.6093 18.1852 26.6904 18.2444Z" fill="#990009"/>
<path d="M91.5296 0H88.2769V23.0299H91.5296V0Z" fill="#990009"/>
<path d="M95.2059 19.2821C96.8 19.2821 98.0923 17.9898 98.0923 16.3957C98.0923 14.8016 96.8 13.5093 95.2059 13.5093C93.6117 13.5093 92.3194 14.8016 92.3194 16.3957C92.3194 17.9898 93.6117 19.2821 95.2059 19.2821Z" fill="#202020"/>
<path d="M21.1701 3.72559C16.8756 3.72559 13.3926 7.2064 13.3926 11.5031C13.3926 15.7998 16.8756 19.2807 21.1701 19.2807C25.4647 19.2807 28.9498 15.7998 28.9498 11.5031C28.9498 7.2064 25.4668 3.72559 21.1701 3.72559ZM21.1701 16.2692C18.5403 16.2692 16.4062 14.1351 16.4062 11.5031C16.4062 8.87113 18.5403 6.73702 21.1701 6.73702C23.7999 6.73702 25.9362 8.87113 25.9362 11.5031C25.9362 14.1351 23.8021 16.2692 21.1701 16.2692Z" fill="#202020"/>
<path d="M62.2311 3.72559C57.9366 3.72559 54.4536 7.2064 54.4536 11.5031C54.4536 15.7998 57.9366 19.2807 62.2311 19.2807C64.0275 19.2807 65.6813 18.6709 66.9972 17.651V19.2807H70.0131V11.5031C70.0131 7.2064 66.5301 3.72559 62.2333 3.72559H62.2311ZM62.2311 16.2692C59.6013 16.2692 57.4672 14.1351 57.4672 11.5031C57.4672 8.87113 59.6013 6.73702 62.2311 6.73702C64.8609 6.73702 66.9972 8.87113 66.9972 11.5031C66.9972 14.1351 64.8631 16.2692 62.2311 16.2692Z" fill="#990009"/>
<path d="M79.1286 3.72559C74.8341 3.72559 71.3511 7.2064 71.3511 11.5031C71.3511 15.7998 74.8341 19.2807 79.1286 19.2807C80.9249 19.2807 82.5787 18.6709 83.8947 17.651V19.2807H86.9105V11.5031C86.9105 7.2064 83.4275 3.72559 79.1308 3.72559H79.1286ZM79.1286 16.2692C76.4988 16.2692 74.3647 14.1351 74.3647 11.5031C74.3647 8.87113 76.4988 6.73702 79.1286 6.73702C81.7584 6.73702 83.8947 8.87113 83.8947 11.5031C83.8947 14.1351 81.7606 16.2692 79.1286 16.2692Z" fill="#990009"/>
<path d="M12.8639 4.16523V5.53606C12.8639 5.63037 12.8332 5.72249 12.7761 5.79926L5.73555 15.2788C5.52061 15.5683 5.72678 15.9807 6.08868 15.9807H12.2497C12.4932 15.9807 12.6906 16.1781 12.6906 16.4215V18.8452C12.6906 19.0886 12.4932 19.286 12.2497 19.286H0.440861C0.197401 19.286 0 19.0886 0 18.8452V17.3888C0 17.2945 0.0307119 17.2024 0.0877384 17.1256L7.12831 7.64604C7.34326 7.35652 7.13709 6.94417 6.77519 6.94417H1.05061C0.807146 6.94417 0.609744 6.74677 0.609744 6.50331V4.16742C0.609744 3.92396 0.807146 3.72656 1.05061 3.72656H12.4252C12.6687 3.72656 12.8661 3.92396 12.8661 4.16742L12.8639 4.16523Z" fill="#202020"/>
<path d="M94.5656 0.494723H93.912V2.64418C93.912 2.76701 93.8835 2.85913 93.8287 2.92054C93.7738 2.97976 93.7014 3.01047 93.6137 3.01047C93.526 3.01047 93.4536 2.97976 93.3966 2.92054C93.3417 2.85913 93.3132 2.7692 93.3132 2.64637V0.496916H92.6596C92.5565 0.496916 92.4819 0.474982 92.4315 0.428922C92.3811 0.382862 92.3569 0.323643 92.3569 0.251263C92.3569 0.178883 92.3832 0.113083 92.4337 0.0692167C92.4841 0.0253502 92.5609 0.00341797 92.6596 0.00341797H94.5656C94.6687 0.00341797 94.7455 0.0253507 94.7959 0.0714105C94.8464 0.11747 94.8727 0.17669 94.8727 0.251263C94.8727 0.325836 94.8464 0.385056 94.7959 0.428922C94.7455 0.474982 94.6687 0.496916 94.5656 0.496916V0.494723Z" fill="#202020"/>
<path d="M96.2257 2.51404L95.7519 0.62778V2.66977C95.7519 2.78382 95.7278 2.86717 95.6752 2.92419C95.6247 2.98122 95.5567 3.00973 95.4734 3.00973C95.39 3.00973 95.3264 2.98122 95.276 2.92638C95.2255 2.87155 95.1992 2.78601 95.1992 2.67196V0.329487C95.1992 0.200081 95.2321 0.112347 95.3001 0.0684809C95.3681 0.022421 95.458 0.000488281 95.5721 0.000488281H95.7585C95.8704 0.000488281 95.9515 0.0114548 96.002 0.0311947C96.0524 0.0509346 96.0897 0.0882212 96.1138 0.140861C96.138 0.193501 96.1665 0.27904 96.1972 0.39748L96.6271 2.01835L97.057 0.39748C97.0877 0.27904 97.1162 0.193501 97.1403 0.140861C97.1644 0.0882212 97.2017 0.0509346 97.2522 0.0311947C97.3026 0.0114548 97.3838 0.000488281 97.4956 0.000488281H97.6821C97.7961 0.000488281 97.8882 0.022421 97.954 0.0684809C98.022 0.114541 98.0549 0.200081 98.0549 0.329487V2.67196C98.0549 2.78601 98.0286 2.86936 97.9782 2.92638C97.9277 2.98341 97.8597 3.01192 97.7742 3.01192C97.6952 3.01192 97.6294 2.98341 97.579 2.92638C97.5285 2.86936 97.5022 2.78601 97.5022 2.67196V0.629973L97.0284 2.51623C96.9977 2.63906 96.9714 2.72899 96.9517 2.78601C96.9319 2.84304 96.8969 2.89568 96.8442 2.94174C96.7916 2.9878 96.7192 3.01192 96.6271 3.01192C96.5569 3.01192 96.4977 2.99657 96.4494 2.96586C96.4012 2.93516 96.3639 2.89787 96.3354 2.84962C96.309 2.80356 96.2871 2.75092 96.2717 2.69389C96.2564 2.63687 96.241 2.57765 96.2235 2.51623L96.2257 2.51404Z" fill="#202020"/>
</svg>
